M48
; DRILL file {KiCad 9.0.0} date 2026-01-03T11:34:38+0900
; FORMAT={-:-/ absolute / metric / decimal}
; #@! TF.CreationDate,2026-01-03T11:34:38+09:00
; #@! TF.GenerationSoftware,Kicad,Pcbnew,9.0.0
; #@! TF.FileFunction,Plated,1,2,PTH
FMAT,2
METRIC
; #@! TA.AperFunction,Plated,PTH,ViaDrill
T1C0.600
; #@! TA.AperFunction,Plated,PTH,ComponentDrill
T2C0.800
; #@! TA.AperFunction,Plated,PTH,ComponentDrill
T3C0.840
; #@! TA.AperFunction,Plated,PTH,ComponentDrill
T4C0.850
; #@! TA.AperFunction,Plated,PTH,ComponentDrill
T5C1.000
; #@! TA.AperFunction,Plated,PTH,ComponentDrill
T6C1.100
; #@! TA.AperFunction,Plated,PTH,ComponentDrill
T7C3.200
%
G90
G05
T1
X172.205Y-72.72
X172.84Y-65.875
X172.84Y-91.135
X173.475Y-60.385
X173.475Y-86.96
X174.54Y-65.875
X174.818Y-72.793
X175.305Y-79.07
X176.015Y-74.895
X176.387Y-59.0
X179.19Y-93.548
X181.095Y-72.72
X181.095Y-79.07
X187.445Y-78.435
X188.08Y-68.275
X189.985Y-70.18
X189.985Y-74.015
X190.577Y-66.327
X191.382Y-93.802
X194.16Y-71.45
X194.97Y-78.435
X196.85Y-61.139
T2
X197.605Y-63.195
X197.605Y-65.195
X198.875Y-56.797
X198.875Y-59.297
X200.145Y-68.275
X200.145Y-70.275
T3
X177.88Y-50.1
X177.88Y-52.64
X177.88Y-55.18
X177.88Y-57.72
X177.88Y-60.26
X177.88Y-62.8
X177.88Y-65.34
X177.88Y-67.88
X193.12Y-50.1
X193.12Y-52.64
X193.12Y-55.18
X193.12Y-57.72
X193.12Y-60.26
X193.12Y-62.8
X193.12Y-65.34
X193.12Y-67.88
T4
X172.158Y-97.358
X174.658Y-97.358
X177.158Y-97.358
X179.25Y-104.0
X181.75Y-104.0
X183.374Y-97.358
X184.25Y-104.0
X185.874Y-97.358
X186.75Y-104.0
X188.374Y-97.358
X189.25Y-104.0
X190.874Y-97.358
X191.75Y-104.0
X197.01Y-97.485
X199.51Y-97.485
T5
X170.3Y-73.99
X170.3Y-76.53
X170.3Y-79.07
X170.3Y-81.61
X170.3Y-84.15
X170.3Y-86.69
X170.3Y-89.23
X170.3Y-91.77
X181.095Y-80.975
X181.095Y-83.515
X181.095Y-86.055
X181.095Y-88.595
X181.095Y-91.135
X189.465Y-87.96
X195.065Y-87.96
X199.51Y-78.435
X199.51Y-80.975
X199.51Y-83.515
X199.51Y-86.055
X199.51Y-88.595
X199.51Y-91.135
T6
X170.245Y-56.21
X170.245Y-62.71
X174.745Y-56.21
X174.745Y-62.71
X184.27Y-50.155
X186.81Y-50.155
X189.35Y-50.155
T7
X172.0Y-51.0
X172.0Y-103.0
X199.0Y-51.0
X199.0Y-103.0
M30
