%TF.GenerationSoftware,KiCad,Pcbnew,9.0.0*%
%TF.CreationDate,2026-01-03T11:34:40+09:00*%
%TF.ProjectId,C3_ROK,43335f52-4f4b-42e6-9b69-6361645f7063,rev?*%
%TF.SameCoordinates,Original*%
%TF.FileFunction,Soldermask,Bot*%
%TF.FilePolarity,Negative*%
%FSLAX46Y46*%
G04 Gerber Fmt 4.6, Leading zero omitted, Abs format (unit mm)*
G04 Created by KiCad (PCBNEW 9.0.0) date 2026-01-03 11:34:40*
%MOMM*%
%LPD*%
G01*
G04 APERTURE LIST*
G04 Aperture macros list*
%AMRoundRect*
0 Rectangle with rounded corners*
0 $1 Rounding radius*
0 $2 $3 $4 $5 $6 $7 $8 $9 X,Y pos of 4 corners*
0 Add a 4 corners polygon primitive as box body*
4,1,4,$2,$3,$4,$5,$6,$7,$8,$9,$2,$3,0*
0 Add four circle primitives for the rounded corners*
1,1,$1+$1,$2,$3*
1,1,$1+$1,$4,$5*
1,1,$1+$1,$6,$7*
1,1,$1+$1,$8,$9*
0 Add four rect primitives between the rounded corners*
20,1,$1+$1,$2,$3,$4,$5,0*
20,1,$1+$1,$4,$5,$6,$7,0*
20,1,$1+$1,$6,$7,$8,$9,0*
20,1,$1+$1,$8,$9,$2,$3,0*%
G04 Aperture macros list end*
%ADD10RoundRect,0.250000X-0.600000X-0.675000X0.600000X-0.675000X0.600000X0.675000X-0.600000X0.675000X0*%
%ADD11O,1.700000X1.850000*%
%ADD12C,5.600000*%
%ADD13R,1.600000X1.600000*%
%ADD14C,1.600000*%
%ADD15RoundRect,0.240000X0.560000X0.560000X-0.560000X0.560000X-0.560000X-0.560000X0.560000X-0.560000X0*%
%ADD16C,1.348000*%
%ADD17RoundRect,0.240000X-0.560000X0.560000X-0.560000X-0.560000X0.560000X-0.560000X0.560000X0.560000X0*%
%ADD18C,2.000000*%
%ADD19RoundRect,0.250000X0.550000X-0.550000X0.550000X0.550000X-0.550000X0.550000X-0.550000X-0.550000X0*%
%ADD20RoundRect,0.250000X-0.450000X0.350000X-0.450000X-0.350000X0.450000X-0.350000X0.450000X0.350000X0*%
%ADD21RoundRect,0.250000X0.475000X-0.337500X0.475000X0.337500X-0.475000X0.337500X-0.475000X-0.337500X0*%
%ADD22RoundRect,0.250000X0.450000X-0.350000X0.450000X0.350000X-0.450000X0.350000X-0.450000X-0.350000X0*%
%ADD23RoundRect,0.250000X0.350000X0.450000X-0.350000X0.450000X-0.350000X-0.450000X0.350000X-0.450000X0*%
%ADD24RoundRect,0.250000X-0.475000X0.337500X-0.475000X-0.337500X0.475000X-0.337500X0.475000X0.337500X0*%
%ADD25RoundRect,0.250000X-0.350000X-0.450000X0.350000X-0.450000X0.350000X0.450000X-0.350000X0.450000X0*%
%ADD26RoundRect,0.375000X-0.375000X0.625000X-0.375000X-0.625000X0.375000X-0.625000X0.375000X0.625000X0*%
%ADD27RoundRect,0.500000X-1.400000X0.500000X-1.400000X-0.500000X1.400000X-0.500000X1.400000X0.500000X0*%
%ADD28R,2.000000X2.000000*%
%ADD29R,1.905000X2.000000*%
%ADD30O,1.905000X2.000000*%
%ADD31RoundRect,0.200000X-0.750000X-0.200000X0.750000X-0.200000X0.750000X0.200000X-0.750000X0.200000X0*%
G04 APERTURE END LIST*
D10*
%TO.C,J4*%
X172158000Y-97358000D03*
D11*
X174658000Y-97358000D03*
X177158000Y-97358000D03*
%TD*%
%TO.C,J1*%
X190874000Y-97358000D03*
X188374000Y-97358000D03*
X185874000Y-97358000D03*
D10*
X183374000Y-97358000D03*
%TD*%
D12*
%TO.C,H2*%
X199000000Y-51000000D03*
%TD*%
D13*
%TO.C,C7*%
X200145000Y-70275000D03*
D14*
X200145000Y-68275000D03*
%TD*%
D13*
%TO.C,C5*%
X197605000Y-65195000D03*
D14*
X197605000Y-63195000D03*
%TD*%
D15*
%TO.C,U5*%
X199510000Y-91135000D03*
X199510000Y-88595000D03*
X199510000Y-86055000D03*
X199510000Y-83515000D03*
X199510000Y-80975000D03*
X199510000Y-78435000D03*
%TD*%
D12*
%TO.C,H4*%
X199000000Y-103000000D03*
%TD*%
D10*
%TO.C,J2*%
X197010000Y-97485000D03*
D11*
X199510000Y-97485000D03*
%TD*%
D12*
%TO.C,H3*%
X172000000Y-103000000D03*
%TD*%
%TO.C,H1*%
X172000000Y-51000000D03*
%TD*%
D16*
%TO.C,U3*%
X193120000Y-67880000D03*
X193120000Y-65340000D03*
X193120000Y-62800000D03*
X193120000Y-60260000D03*
X193120000Y-55180000D03*
X193120000Y-57720000D03*
X177880000Y-50100000D03*
X193120000Y-50100000D03*
X177880000Y-52640000D03*
X177880000Y-55180000D03*
X177880000Y-57720000D03*
X177880000Y-60260000D03*
X177880000Y-62800000D03*
X177880000Y-65340000D03*
X177880000Y-67880000D03*
X193120000Y-52640000D03*
%TD*%
D17*
%TO.C,U6*%
X170300000Y-73990000D03*
X170300000Y-76530000D03*
X170300000Y-79070000D03*
X170300000Y-81610000D03*
X170300000Y-84150000D03*
X170300000Y-86690000D03*
X170300000Y-89230000D03*
X170300000Y-91770000D03*
%TD*%
D18*
%TO.C,SW1*%
X174745000Y-56210000D03*
X174745000Y-62710000D03*
X170245000Y-56210000D03*
X170245000Y-62710000D03*
%TD*%
D19*
%TO.C,C4*%
X198875000Y-59297380D03*
D14*
X198875000Y-56797380D03*
%TD*%
D10*
%TO.C,J3*%
X179250000Y-104000000D03*
D11*
X181750000Y-104000000D03*
X184250000Y-104000000D03*
X186750000Y-104000000D03*
X189250000Y-104000000D03*
X191750000Y-104000000D03*
%TD*%
D15*
%TO.C,U4*%
X181095000Y-80975000D03*
X181095000Y-83515000D03*
X181095000Y-86055000D03*
X181095000Y-88595000D03*
X181095000Y-91135000D03*
%TD*%
D20*
%TO.C,R10*%
X173475000Y-86960000D03*
X173475000Y-88960000D03*
%TD*%
D21*
%TO.C,C2*%
X200780000Y-65502500D03*
X200780000Y-63427500D03*
%TD*%
D22*
%TO.C,R5*%
X200780000Y-61020000D03*
X200780000Y-59020000D03*
%TD*%
D20*
%TO.C,R1*%
X170300000Y-69815000D03*
X170300000Y-71815000D03*
%TD*%
%TO.C,R4*%
X171570000Y-58385000D03*
X171570000Y-60385000D03*
%TD*%
D22*
%TO.C,R3*%
X172840000Y-68005000D03*
X172840000Y-66005000D03*
%TD*%
D23*
%TO.C,R6*%
X194160000Y-71450000D03*
X192160000Y-71450000D03*
%TD*%
D24*
%TO.C,C1*%
X196970000Y-67872500D03*
X196970000Y-69947500D03*
%TD*%
D20*
%TO.C,R7*%
X173475000Y-74895000D03*
X173475000Y-76895000D03*
%TD*%
D21*
%TO.C,C3*%
X201034000Y-57247500D03*
X201034000Y-55172500D03*
%TD*%
D25*
%TO.C,R11*%
X194970000Y-80975000D03*
X196970000Y-80975000D03*
%TD*%
D26*
%TO.C,U2*%
X187685000Y-74015000D03*
X189985000Y-74015000D03*
D27*
X189985000Y-80315000D03*
D26*
X192285000Y-74015000D03*
%TD*%
D28*
%TO.C,BZ1*%
X189465000Y-87960000D03*
D18*
X195065000Y-87960000D03*
%TD*%
D20*
%TO.C,R8*%
X176015000Y-74895000D03*
X176015000Y-76895000D03*
%TD*%
D29*
%TO.C,U1*%
X184270000Y-50155000D03*
D30*
X186810000Y-50155000D03*
X189350000Y-50155000D03*
%TD*%
D24*
%TO.C,C6*%
X200780000Y-72952500D03*
X200780000Y-75027500D03*
%TD*%
D31*
%TO.C,Q1*%
X178960000Y-76845000D03*
X178960000Y-74945000D03*
X181960000Y-75895000D03*
%TD*%
D20*
%TO.C,R9*%
X184905000Y-74895000D03*
X184905000Y-76895000D03*
%TD*%
D25*
%TO.C,R12*%
X194970000Y-75895000D03*
X196970000Y-75895000D03*
%TD*%
D20*
%TO.C,R2*%
X173475000Y-58385000D03*
X173475000Y-60385000D03*
%TD*%
D25*
%TO.C,R13*%
X194970000Y-78435000D03*
X196970000Y-78435000D03*
%TD*%
M02*
