%TF.GenerationSoftware,KiCad,Pcbnew,9.0.0*%
%TF.CreationDate,2026-01-03T11:34:40+09:00*%
%TF.ProjectId,C3_ROK,43335f52-4f4b-42e6-9b69-6361645f7063,rev?*%
%TF.SameCoordinates,Original*%
%TF.FileFunction,Soldermask,Top*%
%TF.FilePolarity,Negative*%
%FSLAX46Y46*%
G04 Gerber Fmt 4.6, Leading zero omitted, Abs format (unit mm)*
G04 Created by KiCad (PCBNEW 9.0.0) date 2026-01-03 11:34:40*
%MOMM*%
%LPD*%
G01*
G04 APERTURE LIST*
G04 Aperture macros list*
%AMRoundRect*
0 Rectangle with rounded corners*
0 $1 Rounding radius*
0 $2 $3 $4 $5 $6 $7 $8 $9 X,Y pos of 4 corners*
0 Add a 4 corners polygon primitive as box body*
4,1,4,$2,$3,$4,$5,$6,$7,$8,$9,$2,$3,0*
0 Add four circle primitives for the rounded corners*
1,1,$1+$1,$2,$3*
1,1,$1+$1,$4,$5*
1,1,$1+$1,$6,$7*
1,1,$1+$1,$8,$9*
0 Add four rect primitives between the rounded corners*
20,1,$1+$1,$2,$3,$4,$5,0*
20,1,$1+$1,$4,$5,$6,$7,0*
20,1,$1+$1,$6,$7,$8,$9,0*
20,1,$1+$1,$8,$9,$2,$3,0*%
G04 Aperture macros list end*
%ADD10RoundRect,0.250000X-0.600000X-0.675000X0.600000X-0.675000X0.600000X0.675000X-0.600000X0.675000X0*%
%ADD11O,1.700000X1.850000*%
%ADD12C,5.600000*%
%ADD13R,1.600000X1.600000*%
%ADD14C,1.600000*%
%ADD15RoundRect,0.240000X0.560000X0.560000X-0.560000X0.560000X-0.560000X-0.560000X0.560000X-0.560000X0*%
%ADD16C,1.552000*%
%ADD17RoundRect,0.240000X-0.560000X0.560000X-0.560000X-0.560000X0.560000X-0.560000X0.560000X0.560000X0*%
%ADD18C,2.000000*%
%ADD19RoundRect,0.250000X0.550000X-0.550000X0.550000X0.550000X-0.550000X0.550000X-0.550000X-0.550000X0*%
%ADD20R,1.100000X2.000000*%
%ADD21R,2.000000X2.000000*%
%ADD22R,1.905000X2.000000*%
%ADD23O,1.905000X2.000000*%
G04 APERTURE END LIST*
D10*
%TO.C,J4*%
X172158000Y-97358000D03*
D11*
X174658000Y-97358000D03*
X177158000Y-97358000D03*
%TD*%
%TO.C,J1*%
X190874000Y-97358000D03*
X188374000Y-97358000D03*
X185874000Y-97358000D03*
D10*
X183374000Y-97358000D03*
%TD*%
D12*
%TO.C,H2*%
X199000000Y-51000000D03*
%TD*%
D13*
%TO.C,C7*%
X200145000Y-70275000D03*
D14*
X200145000Y-68275000D03*
%TD*%
D13*
%TO.C,C5*%
X197605000Y-65195000D03*
D14*
X197605000Y-63195000D03*
%TD*%
D15*
%TO.C,U5*%
X199510000Y-91135000D03*
X199510000Y-88595000D03*
X199510000Y-86055000D03*
X199510000Y-83515000D03*
X199510000Y-80975000D03*
X199510000Y-78435000D03*
%TD*%
D12*
%TO.C,H4*%
X199000000Y-103000000D03*
%TD*%
D10*
%TO.C,J2*%
X197010000Y-97485000D03*
D11*
X199510000Y-97485000D03*
%TD*%
D12*
%TO.C,H3*%
X172000000Y-103000000D03*
%TD*%
%TO.C,H1*%
X172000000Y-51000000D03*
%TD*%
D16*
%TO.C,U3*%
X193120000Y-67880000D03*
X193120000Y-65340000D03*
X193120000Y-62800000D03*
X193120000Y-60260000D03*
X193120000Y-55180000D03*
X193120000Y-57720000D03*
X177880000Y-50100000D03*
X193120000Y-50100000D03*
X177880000Y-52640000D03*
X177880000Y-55180000D03*
X177880000Y-57720000D03*
X177880000Y-60260000D03*
X177880000Y-62800000D03*
X177880000Y-65340000D03*
X177880000Y-67880000D03*
X193120000Y-52640000D03*
%TD*%
D17*
%TO.C,U6*%
X170300000Y-73990000D03*
X170300000Y-76530000D03*
X170300000Y-79070000D03*
X170300000Y-81610000D03*
X170300000Y-84150000D03*
X170300000Y-86690000D03*
X170300000Y-89230000D03*
X170300000Y-91770000D03*
%TD*%
D18*
%TO.C,SW1*%
X174745000Y-56210000D03*
X174745000Y-62710000D03*
X170245000Y-56210000D03*
X170245000Y-62710000D03*
%TD*%
D19*
%TO.C,C4*%
X198875000Y-59297380D03*
D14*
X198875000Y-56797380D03*
%TD*%
D20*
%TO.C,D1*%
X174540000Y-65875000D03*
X172840000Y-65875000D03*
X171140000Y-65875000D03*
X171140000Y-70675000D03*
X172840000Y-70675000D03*
X174540000Y-70675000D03*
%TD*%
D10*
%TO.C,J3*%
X179250000Y-104000000D03*
D11*
X181750000Y-104000000D03*
X184250000Y-104000000D03*
X186750000Y-104000000D03*
X189250000Y-104000000D03*
X191750000Y-104000000D03*
%TD*%
D15*
%TO.C,U4*%
X181095000Y-80975000D03*
X181095000Y-83515000D03*
X181095000Y-86055000D03*
X181095000Y-88595000D03*
X181095000Y-91135000D03*
%TD*%
D21*
%TO.C,BZ1*%
X189465000Y-87960000D03*
D18*
X195065000Y-87960000D03*
%TD*%
D22*
%TO.C,U1*%
X184270000Y-50155000D03*
D23*
X186810000Y-50155000D03*
X189350000Y-50155000D03*
%TD*%
M02*
